# xmcd
#
# Track frame offsets:
#	150
#	15163
#	33395
#	42513
#	61184
#	81460
#	95384
#	111205
#	124585
#	140061
#	154033
#	160065
#	185054
#	197237
#
# Disc length: 2896 seconds
#
# Revision: 1
# Processed by: cddbd v1.5.2PL0 Copyright (c) Steve Scherf et al.
# Submitted via: audiograbber 1.83.01
#
DISCID=b90b4e0e
DTITLE=Thursday's Child - Voyager
DYEAR=2012
DGENRE=Folk
TTITLE0=Thursday's Child - Travellers
TTITLE1=Thursday's Child - Shades
TTITLE2=Thursday's Child - Travelling On
TTITLE3=Thursday's Child - Ombrelle
TTITLE4=Thursday's Child - Lazy Daze
TTITLE5=Thursday's Child - Special Delivery
TTITLE6=Thursday's Child - Blackheart
TTITLE7=Thursday's Child - Patterns
TTITLE8=Thursday's Child - Lay Me Down
TTITLE9=Thursday's Child - Olive Branch
TTITLE10=Thursday's Child - Winter Follows Summer
TTITLE11=Thursday's Child - Vinyl
TTITLE12=Thursday's Child - Pax
TTITLE13=Thursday's Child - Voyager
EXTD=
EXTT0=
EXTT1=
EXTT2=
EXTT3=
EXTT4=
EXTT5=
EXTT6=
EXTT7=
EXTT8=
EXTT9=
EXTT10=
EXTT11=
EXTT12=
EXTT13=
PLAYORDER=
